<svg width="147" height="44" viewBox="0 0 147 44" fill="none" xmlns="http://www.w3.org/2000/svg"><rect width="147" height="44" rx="8"></rect><path d="M54.92 17.13L51.49 27H53.66L54.388 24.606H57.874L58.602 27H60.772L57.342 17.13H54.92ZM54.864 23.066L56.068 19.104H56.194L57.398 23.066H54.864ZM64.2499 19.468H62.2479V29.492H64.2499V25.796H64.3759C64.7539 26.622 65.5939 27.112 66.6299 27.112C68.5339 27.112 69.6819 25.656 69.6819 23.234V23.22C69.6819 20.826 68.5059 19.356 66.6299 19.356C65.5659 19.356 64.7679 19.832 64.3759 20.63H64.2499V19.468ZM64.2219 23.234V23.22C64.2219 21.848 64.8939 21.008 65.9439 21.008C67.0079 21.008 67.6519 21.848 67.6519 23.22V23.234C67.6519 24.62 66.9939 25.46 65.9439 25.46C64.8939 25.46 64.2219 24.62 64.2219 23.234ZM73.3144 19.468H71.3124V29.492H73.3144V25.796H73.4404C73.8184 26.622 74.6584 27.112 75.6944 27.112C77.5984 27.112 78.7464 25.656 78.7464 23.234V23.22C78.7464 20.826 77.5704 19.356 75.6944 19.356C74.6304 19.356 73.8324 19.832 73.4404 20.63H73.3144V19.468ZM73.2864 23.234V23.22C73.2864 21.848 73.9584 21.008 75.0084 21.008C76.0724 21.008 76.7164 21.848 76.7164 23.22V23.234C76.7164 24.62 76.0584 25.46 75.0084 25.46C73.9584 25.46 73.2864 24.62 73.2864 23.234ZM85.8045 24.34V24.27H83.8165V24.368C83.9425 26.118 85.4265 27.252 87.7785 27.252C90.2425 27.252 91.7685 26.02 91.7685 24.06C91.7685 22.52 90.8585 21.68 88.7725 21.246L87.7225 21.036C86.5605 20.798 86.0845 20.42 86.0845 19.776V19.762C86.0845 19.034 86.7565 18.558 87.7785 18.558C88.8145 18.558 89.5005 19.048 89.6125 19.748L89.6265 19.832H91.5725L91.5585 19.748C91.4325 18.096 90.0885 16.878 87.7785 16.878C85.5945 16.878 84.0125 18.096 84.0125 19.93C84.0125 21.428 84.8945 22.38 86.9525 22.8L87.9885 23.01C89.2205 23.262 89.6965 23.626 89.6965 24.284C89.6965 25.04 88.9405 25.572 87.8345 25.572C86.6865 25.572 85.8885 25.068 85.8045 24.34ZM92.8998 19.468V20.98H94.0618V24.97C94.0618 26.426 94.8038 27.028 96.6238 27.028C97.0158 27.028 97.3798 26.986 97.6318 26.944V25.46C97.4358 25.474 97.2958 25.488 97.0438 25.488C96.3578 25.488 96.0778 25.194 96.0778 24.508V20.98H97.6318V19.468H96.0778V17.676H94.0618V19.468H92.8998ZM98.921 23.22V23.234C98.921 25.684 100.321 27.154 102.631 27.154C104.955 27.154 106.341 25.698 106.341 23.234V23.22C106.341 20.798 104.927 19.314 102.631 19.314C100.335 19.314 98.921 20.798 98.921 23.22ZM100.965 23.234V23.22C100.965 21.75 101.567 20.868 102.631 20.868C103.681 20.868 104.297 21.75 104.297 23.22V23.234C104.297 24.718 103.695 25.586 102.631 25.586C101.567 25.586 100.965 24.718 100.965 23.234ZM109.969 19.468H107.967V27H109.969V22.786C109.969 21.722 110.683 21.078 111.817 21.078C112.125 21.078 112.433 21.12 112.741 21.19V19.44C112.545 19.384 112.251 19.356 111.985 19.356C111.019 19.356 110.333 19.832 110.095 20.644H109.969V19.468ZM117.369 27.154C119.567 27.154 120.533 25.88 120.771 24.942L120.785 24.872H118.923L118.909 24.914C118.769 25.208 118.279 25.67 117.411 25.67C116.347 25.67 115.689 24.942 115.661 23.71H120.841V23.094C120.841 20.812 119.483 19.314 117.285 19.314C115.087 19.314 113.687 20.84 113.687 23.234V23.248C113.687 25.656 115.073 27.154 117.369 27.154ZM115.689 22.464C115.801 21.4 116.445 20.812 117.313 20.812C118.181 20.812 118.811 21.372 118.923 22.464H115.689Z"></path><path fill-rule="evenodd" clip-rule="evenodd" d="M39.8838 16.2426C42.0624 16.2426 43.4555 18.3729 43.4555 18.3729C43.4555 18.3729 41.3303 19.5383 41.3303 22.0694C41.3303 25.0734 44 25.9473 44 25.9473C44 25.9473 41.8928 31 39.5268 31C38.1963 31 38.1074 30.2265 36.3393 30.2265C34.8038 30.2265 34.286 31 33.1164 31C30.8839 31 28 26.0748 28 22.0694C28 17.9088 30.9198 16.2426 32.7501 16.2426C34.3574 16.2426 35.0268 17.1985 36.3213 17.1985C37.4108 17.1985 38.2682 16.2426 39.8838 16.2426ZM39.5093 12C39.8304 14.0393 38.0001 16.5614 35.8127 16.4794C35.4912 13.8846 37.8485 12.1369 39.5093 12Z"></path></svg>