<svg width="25" height="24" viewBox="0 0 25 24" fill="none" xmlns="http://www.w3.org/2000/svg"><g clip-path="url(#clip0_1492_32254)"><path fill-rule="evenodd" clip-rule="evenodd" d="M2.86619 3H21.6338C23.0736 3 24.2515 4.17222 24.25 5.60362V16.1668C24.25 17.5982 23.0736 18.7704 21.6338 18.7704H14.2351C14.2351 18.7704 12.6961 22.6376 12.1768 22.6376C11.6588 22.6376 10.2353 18.7704 10.2353 18.7704H2.86619C1.42788 18.7704 0.25 17.5982 0.25 16.1668V5.60362C0.25 4.17222 1.42788 3 2.86619 3ZM5.66291 13.3438C6.2844 13.3438 6.85411 13.1685 7.22552 12.7518C7.59842 12.335 7.78191 11.9404 7.78191 11.2512C7.78191 10.6179 7.54959 10.0451 7.23292 9.67987C6.91477 9.31318 6.38355 8.99509 5.87303 9.01276C5.2767 9.03191 4.77062 9.14236 4.38885 9.46633H4.37109V7.12779H2.96237V13.2436H4.37109V12.9462H4.38885C4.6922 13.1759 5.10209 13.3438 5.66291 13.3438ZM8.81329 13.2893H10.2501V9.55175C10.1332 7.12337 8.11929 7.00115 8.11929 7.00115V8.51649C8.11929 8.51649 8.81329 8.63135 8.81329 9.50462V13.2893ZM15.3612 12.8622C15.5935 12.6472 15.7681 12.4028 15.8894 12.1289C16.0093 11.8564 16.0685 11.5663 16.0714 11.2585C16.0714 10.9507 16.0108 10.6606 15.8909 10.3867C15.7696 10.1128 15.595 9.86836 15.3626 9.65336C15.1333 9.4413 14.8714 9.27784 14.5754 9.16444C14.278 9.05105 13.9658 8.99509 13.6358 8.99509C13.3117 8.99509 13.0039 9.05105 12.7109 9.16444C12.4179 9.27784 12.156 9.43983 11.9237 9.65336C11.6855 9.8772 11.5064 10.1246 11.3836 10.3956C11.2608 10.6665 11.2001 10.9552 11.2001 11.2585C11.2001 11.5619 11.2608 11.8505 11.3821 12.12C11.5049 12.391 11.684 12.6384 11.9222 12.8622C12.1531 13.0743 12.415 13.2378 12.7095 13.3511C13.0024 13.4645 13.3102 13.522 13.6343 13.522C13.9643 13.522 14.278 13.4645 14.5739 13.3511C14.8714 13.2378 15.1333 13.0743 15.3612 12.8622ZM20.8525 14.921C21.3349 14.4659 21.5391 13.8106 21.5391 12.7371V9.0378H20.1393V9.37503H20.1215C19.7812 9.06578 19.4334 8.93324 18.88 8.93324C18.2629 8.93324 17.7228 9.13794 17.3455 9.57678C16.9667 10.0142 16.7773 10.6076 16.7773 11.3528C16.7773 12.0184 16.946 12.5486 17.2863 12.9447C17.6252 13.3408 18.1268 13.5529 18.7054 13.5529C19.3298 13.5529 19.7989 13.3924 20.12 12.9506H20.1378V13.2348C20.1393 13.9741 19.3506 14.3496 18.7779 14.2922V15.4025C19.4645 15.4997 20.2798 15.4614 20.8525 14.921ZM12.9462 10.5489C13.1356 10.356 13.365 10.2603 13.6328 10.2603C13.9051 10.2603 14.1374 10.356 14.3313 10.5489C14.5251 10.7418 14.6213 10.976 14.6213 11.2499C14.6213 11.5238 14.5251 11.7579 14.3313 11.9508C14.1374 12.1423 13.9051 12.2395 13.6328 12.2395C13.365 12.2395 13.1356 12.1438 12.9462 11.9508C12.7568 11.7579 12.6606 11.5252 12.6606 11.2499C12.6606 10.976 12.7553 10.7418 12.9462 10.5489ZM4.64057 10.5577C4.82998 10.3662 5.05934 10.269 5.32717 10.269C5.59945 10.269 5.83177 10.3648 6.02561 10.5577C6.21946 10.7506 6.31564 10.9847 6.31564 11.2587C6.31564 11.534 6.21946 11.7667 6.02561 11.9596C5.83177 12.1525 5.59945 12.2497 5.32717 12.2497C5.05934 12.2497 4.83146 12.1525 4.64057 11.9596C4.44968 11.7667 4.35498 11.5326 4.35498 11.2587C4.35498 10.9847 4.44968 10.7506 4.64057 10.5577ZM19.1714 10.269C18.9036 10.269 18.6742 10.3662 18.4833 10.5577C18.2939 10.7506 18.1978 10.9847 18.1978 11.2587C18.1978 11.5326 18.2939 11.7667 18.4833 11.9596C18.6742 12.1525 18.9036 12.2497 19.1714 12.2497C19.4422 12.2497 19.676 12.1525 19.8699 11.9596C20.0637 11.7667 20.1599 11.534 20.1599 11.2587C20.1599 10.9847 20.0622 10.7506 19.8699 10.5577C19.676 10.3648 19.4437 10.269 19.1714 10.269Z" fill="#868B94"></path></g><defs><clipPath id="clip0_1492_32254"><rect width="24" height="24" fill="white" transform="translate(0.25)"></rect></clipPath></defs></svg>