<svg width="25" height="24" viewBox="0 0 25 24" fill="none" xmlns="http://www.w3.org/2000/svg"><path d="M11.7928 3.67695C14.6079 3.67695 14.9413 3.68727 16.053 3.73611C17.081 3.78129 17.6392 3.94668 18.0107 4.08567C18.5028 4.26984 18.854 4.48988 19.223 4.84513C19.5919 5.20037 19.8204 5.53861 20.0116 6.01245C20.156 6.37024 20.3277 6.9078 20.3746 7.8976C20.4253 8.96817 20.4361 9.28924 20.4361 12.0001C20.4361 14.7109 20.4253 15.0319 20.3746 16.1025C20.3277 17.0923 20.156 17.6299 20.0116 17.9877C19.8204 18.4615 19.5919 18.7997 19.223 19.155C18.854 19.5102 18.5028 19.7303 18.0107 19.9144C17.6392 20.0534 17.081 20.2188 16.053 20.264C14.9415 20.3128 14.6081 20.3232 11.7928 20.3232C8.97759 20.3232 8.64417 20.3128 7.53264 20.264C6.50472 20.2188 5.94648 20.0534 5.57498 19.9144C5.08287 19.7303 4.73162 19.5102 4.36271 19.155C3.99381 18.7997 3.76531 18.4615 3.57409 17.9877C3.42971 17.6299 3.25796 17.0923 3.21105 16.1025C3.16032 15.0319 3.14961 14.7109 3.14961 12.0001C3.14961 9.28924 3.16032 8.96817 3.21105 7.89764C3.25796 6.9078 3.42971 6.37024 3.57409 6.01245C3.76531 5.53861 3.99381 5.20037 4.36271 4.84513C4.73162 4.48988 5.08287 4.26984 5.57498 4.08567C5.94648 3.94668 6.50472 3.78129 7.5326 3.73611C8.64434 3.68727 8.97776 3.67695 11.7928 3.67695ZM11.7928 1.84766C8.92955 1.84766 8.57056 1.85934 7.44605 1.90875C6.32384 1.95808 5.55749 2.12968 4.88684 2.38066C4.19356 2.64011 3.60561 2.98726 3.0195 3.55166C2.43339 4.11606 2.0729 4.68223 1.80347 5.34984C1.54282 5.99565 1.36463 6.73362 1.3134 7.81426C1.26209 8.89708 1.25 9.24282 1.25 12.0001C1.25 14.7573 1.26209 15.103 1.3134 16.1859C1.36463 17.2665 1.54282 18.0045 1.80347 18.6503C2.0729 19.3178 2.43339 19.8841 3.0195 20.4485C3.60561 21.0129 4.19356 21.36 4.88684 21.6195C5.55749 21.8704 6.32384 22.042 7.44605 22.0914C8.57056 22.1408 8.92955 22.1524 11.7928 22.1524C14.6561 22.1524 15.0152 22.1408 16.1396 22.0914C17.2618 22.042 18.0282 21.8704 18.6988 21.6195C19.3921 21.36 19.9801 21.0129 20.5662 20.4485C21.1523 19.8841 21.5128 19.3179 21.7822 18.6503C22.0428 18.0045 22.221 17.2665 22.2723 16.1859C22.3236 15.103 22.3357 14.7573 22.3357 12.0001C22.3357 9.24282 22.3236 8.89708 22.2723 7.81426C22.221 6.73362 22.0428 5.99565 21.7822 5.34984C21.5128 4.68223 21.1523 4.11606 20.5662 3.55166C19.9801 2.98726 19.3921 2.64011 18.6988 2.38066C18.0282 2.12968 17.2618 1.95808 16.1396 1.90875C15.0152 1.85934 14.6561 1.84766 11.7928 1.84766ZM11.7928 6.78666C8.80283 6.78666 6.37892 9.12079 6.37892 12.0001C6.37892 14.8793 8.80283 17.2135 11.7928 17.2135C14.7828 17.2135 17.2068 14.8793 17.2068 12.0001C17.2068 9.12079 14.7828 6.78666 11.7928 6.78666ZM11.7928 15.3842C9.85196 15.3842 8.27853 13.869 8.27853 12.0001C8.27853 10.1311 9.85196 8.61591 11.7928 8.61591C13.7337 8.61591 15.3071 10.1311 15.3071 12.0001C15.3071 13.869 13.7337 15.3842 11.7928 15.3842ZM18.6858 6.58068C18.6858 7.25353 18.1194 7.79899 17.4206 7.79899C16.7219 7.79899 16.1555 7.25353 16.1555 6.58068C16.1555 5.90784 16.7219 5.36242 17.4206 5.36242C18.1194 5.36242 18.6858 5.90784 18.6858 6.58068Z" fill="#868B94"></path></svg>