<svg width="147" height="44" viewBox="0 0 147 44" fill="none" xmlns="http://www.w3.org/2000/svg"><rect width="147" height="44" rx="8" fill="#EAEBEE"></rect><path d="M44.756 22.044V22.058C44.756 25.278 46.562 27.252 49.488 27.252C52.19 27.252 53.87 25.614 53.87 22.996V21.736H49.726V23.248H51.854V23.43C51.812 24.676 50.874 25.502 49.53 25.502C47.892 25.502 46.87 24.186 46.87 22.044V22.03C46.87 19.93 47.85 18.628 49.446 18.628C50.594 18.628 51.434 19.216 51.714 20.196L51.728 20.266H53.786L53.772 20.196C53.478 18.222 51.77 16.878 49.446 16.878C46.576 16.878 44.756 18.88 44.756 22.044ZM55.2667 23.22V23.234C55.2667 25.684 56.6667 27.154 58.9767 27.154C61.3007 27.154 62.6867 25.698 62.6867 23.234V23.22C62.6867 20.798 61.2727 19.314 58.9767 19.314C56.6807 19.314 55.2667 20.798 55.2667 23.22ZM57.3107 23.234V23.22C57.3107 21.75 57.9127 20.868 58.9767 20.868C60.0267 20.868 60.6427 21.75 60.6427 23.22V23.234C60.6427 24.718 60.0407 25.586 58.9767 25.586C57.9127 25.586 57.3107 24.718 57.3107 23.234ZM63.9484 23.22V23.234C63.9484 25.684 65.3484 27.154 67.6584 27.154C69.9824 27.154 71.3684 25.698 71.3684 23.234V23.22C71.3684 20.798 69.9544 19.314 67.6584 19.314C65.3624 19.314 63.9484 20.798 63.9484 23.22ZM65.9924 23.234V23.22C65.9924 21.75 66.5944 20.868 67.6584 20.868C68.7084 20.868 69.3244 21.75 69.3244 23.22V23.234C69.3244 24.718 68.7224 25.586 67.6584 25.586C66.5944 25.586 65.9924 24.718 65.9924 23.234ZM72.616 23.052V23.066C72.616 25.208 73.778 26.678 75.668 26.678C76.718 26.678 77.516 26.244 77.922 25.446H78.048V26.846C78.048 27.728 77.432 28.218 76.368 28.218C75.472 28.218 74.954 27.924 74.842 27.49V27.462H72.868V27.49C73.022 28.778 74.24 29.646 76.326 29.646C78.594 29.646 80.036 28.526 80.036 26.762V19.468H78.048V20.7H77.95C77.544 19.86 76.732 19.356 75.71 19.356C73.778 19.356 72.616 20.84 72.616 23.052ZM74.66 23.066V23.052C74.66 21.806 75.276 20.966 76.354 20.966C77.418 20.966 78.076 21.806 78.076 23.052V23.066C78.076 24.298 77.432 25.138 76.354 25.138C75.262 25.138 74.66 24.298 74.66 23.066ZM82.1148 16.598V27H84.1168V16.598H82.1148ZM89.4917 27.154C91.6897 27.154 92.6557 25.88 92.8937 24.942L92.9077 24.872H91.0457L91.0317 24.914C90.8917 25.208 90.4017 25.67 89.5337 25.67C88.4697 25.67 87.8117 24.942 87.7837 23.71H92.9637V23.094C92.9637 20.812 91.6057 19.314 89.4077 19.314C87.2097 19.314 85.8097 20.84 85.8097 23.234V23.248C85.8097 25.656 87.1957 27.154 89.4917 27.154ZM87.8117 22.464C87.9237 21.4 88.5677 20.812 89.4357 20.812C90.3037 20.812 90.9337 21.372 91.0457 22.464H87.8117ZM102.53 17.13H98.4556V27H100.528V23.892H102.53C104.602 23.892 106.002 22.548 106.002 20.518V20.504C106.002 18.474 104.602 17.13 102.53 17.13ZM100.528 22.282V18.768H102.026C103.202 18.768 103.902 19.384 103.902 20.518V20.532C103.902 21.652 103.202 22.282 102.026 22.282H100.528ZM107.763 16.598V27H109.765V16.598H107.763ZM113.88 27.112C114.86 27.112 115.658 26.692 116.036 26.006H116.162V27H118.136V21.862C118.136 20.252 117.002 19.314 115 19.314C113.11 19.314 111.864 20.182 111.71 21.498V21.568H113.544L113.558 21.54C113.726 21.092 114.174 20.84 114.902 20.84C115.714 20.84 116.162 21.204 116.162 21.862V22.478L114.342 22.59C112.466 22.702 111.43 23.486 111.43 24.844V24.858C111.43 26.23 112.438 27.112 113.88 27.112ZM113.376 24.732V24.718C113.376 24.172 113.782 23.85 114.65 23.794L116.162 23.71V24.256C116.162 25.054 115.476 25.656 114.552 25.656C113.852 25.656 113.376 25.306 113.376 24.732ZM121.662 19.468H119.464L122.11 27L122.04 27.294C121.9 27.882 121.494 28.148 120.78 28.148C120.598 28.148 120.402 28.148 120.262 28.134V29.632C120.5 29.646 120.752 29.66 120.976 29.66C122.838 29.66 123.832 28.988 124.504 26.986L127.066 19.468H124.952L123.384 25.18H123.244L121.662 19.468Z" fill="#212124"></path><path fill-rule="evenodd" clip-rule="evenodd" d="M20.5227 32C20.2061 31.9138 20 31.596 20 31.1044V14.8742C20 14.4188 20.1745 14.1117 20.4511 14L28.3418 23.0448L20.5227 32ZM21.6089 31.6555L31.1069 26.2143L28.7935 23.5626L21.6089 31.6555ZM31.1723 19.8032L21.8067 14.4366L28.8072 22.5119L31.1723 19.8032ZM31.8077 20.1673L35.4766 22.2696C36.1713 22.6677 36.1776 23.3093 35.4766 23.7109L31.7149 25.866L29.2613 23.0357L31.8077 20.1673Z" fill="#212124"></path></svg>