<svg width="25" height="24" viewBox="0 0 25 24" fill="none" xmlns="http://www.w3.org/2000/svg"><g clip-path="url(#clip0_1492_32246)"><path fill-rule="evenodd" clip-rule="evenodd" d="M21.6404 3.5339C22.6684 3.82139 23.4789 4.66332 23.7557 5.73112C24.2697 7.68193 24.2499 11.7478 24.2499 11.7478C24.2499 11.7478 24.2499 15.7932 23.7557 17.744C23.4789 18.8118 22.6684 19.6537 21.6404 19.9412C19.7623 20.4545 12.2499 20.4545 12.2499 20.4545C12.2499 20.4545 4.75739 20.4545 2.85954 19.9206C1.83154 19.6332 1.021 18.7912 0.744232 17.7234C0.25 15.7932 0.25 11.7273 0.25 11.7273C0.25 11.7273 0.25 7.68193 0.744232 5.73112C1.021 4.66332 1.85131 3.80086 2.85954 3.51337C4.73763 3 12.2499 3 12.2499 3C12.2499 3 19.7623 3 21.6404 3.5339ZM9.85784 7.99009L16.1049 11.7274L9.85784 15.4647V7.99009Z" fill="#868B94"></path></g><defs><clipPath id="clip0_1492_32246"><rect width="24" height="24" fill="white" transform="translate(0.25)"></rect></clipPath></defs></svg>